HIERARCHY
ROOT Hips
{
	OFFSET 0.00000 0.00000 0.00000
	CHANNELS 6 Xposition Yposition Zposition Zrotation Yrotation Xrotation 
	JOINT LHipJoint
	{
		OFFSET 0 0 0
		CHANNELS 3 Zrotation Yrotation Xrotation
		JOINT LeftHip
		{
			OFFSET 1.58895 -1.83665 0.71753
			CHANNELS 3 Zrotation Yrotation Xrotation
			JOINT LeftKnee
			{
				OFFSET 2.50528 -6.88321 0.00000
				CHANNELS 3 Zrotation Yrotation Xrotation
				JOINT LeftAnkle
				{
					OFFSET 2.63244 -7.23257 0.00000
					CHANNELS 3 Zrotation Yrotation Xrotation
					JOINT LeftToe
					{
						OFFSET 0.23691 -0.65090 1.72750
						CHANNELS 3 Zrotation Yrotation Xrotation
						End Site
						{
							OFFSET 0.00000 -0.00000 0.92561
						}
					}
				}
			}
		}
	}
	JOINT RHipJoint
	{
		OFFSET 0 0 0
		CHANNELS 3 Zrotation Yrotation Xrotation
		JOINT RightHip
		{
			OFFSET -1.51435 -1.83665 0.71753
			CHANNELS 3 Zrotation Yrotation Xrotation
			JOINT RightKnee
			{
				OFFSET -2.54551 -6.99375 0.00000
				CHANNELS 3 Zrotation Yrotation Xrotation
				JOINT RightAnkle
				{
					OFFSET -2.66027 -7.30903 0.00000
					CHANNELS 3 Zrotation Yrotation Xrotation
					JOINT RightToe
					{
						OFFSET -0.22981 -0.63138 2.03959
						CHANNELS 3 Zrotation Yrotation Xrotation
						End Site
						{
							OFFSET -0.00000 -0.00000 1.07060
						}
					}
				}
			}
		}
	}
	JOINT lowerback
	{
		OFFSET 0 0 0
		CHANNELS 3 Zrotation Yrotation Xrotation
		JOINT Chest
		{
			OFFSET -0.02651 1.86275 -0.11152
			CHANNELS 3 Zrotation Yrotation Xrotation
			JOINT Chest2
			{
				OFFSET 0.01019 1.86224 0.04087
				CHANNELS 3 Zrotation Yrotation Xrotation
				JOINT lowerneck
				{
					OFFSET 0 0 0
					CHANNELS 3 Zrotation Yrotation Xrotation
					JOINT Neck
					{
						OFFSET -0.01926 1.80512 0.08867
						CHANNELS 3 Zrotation Yrotation Xrotation
						JOINT Head
						{
							OFFSET 0.05516 1.76451 -0.38475
							CHANNELS 3 Zrotation Yrotation Xrotation
							End Site
							{
								OFFSET 0.01592 1.82587 -0.14001
							}
						}
					}
				}
				JOINT LeftCollar
				{
					OFFSET 0 0 0
					CHANNELS 3 Zrotation Yrotation Xrotation
					JOINT LeftShoulder
					{
						OFFSET 3.47116 1.51376 0.14491
CHANNELS 3 Zrotation Xrotation Yrotation
						JOINT LeftElbow
						{
OFFSET 0 -4.780950 0.000000
CHANNELS 3 Zrotation Xrotation Yrotation
							JOINT LeftWrist
							{
OFFSET 0 -3.586150 -0.000000
CHANNELS 3 Zrotation Xrotation Yrotation
								JOINT lhand
								{
									OFFSET 0 0 0
CHANNELS 3 Zrotation Xrotation Yrotation
									JOINT LFingers
									{
OFFSET 0 -0.659810 0.000000
CHANNELS 3 Zrotation Xrotation Yrotation
										End Site
										{
OFFSET 0 -0.531960 0.000000
										}
									}
								}
								JOINT LThumb
								{
OFFSET 0 0.000000 0.000000
CHANNELS 3 Zrotation Xrotation Yrotation
									End Site
									{
OFFSET 0 -0.540080 0.540080
									}
								}
							}
						}
					}
				}
				JOINT RightCollar
				{
					OFFSET 0 0 0
					CHANNELS 3 Zrotation Yrotation Xrotation
					JOINT RightShoulder
					{
						OFFSET -3.31725 1.61216 0.35156
CHANNELS 3 Zrotation Xrotation Yrotation
						JOINT RightElbow
						{
OFFSET 0 -4.489130 0.000000
CHANNELS 3 Zrotation Xrotation Yrotation
							JOINT RightWrist
							{
OFFSET 0 -3.705100 0.000000
CHANNELS 3 Zrotation Xrotation Yrotation
								JOINT rhand
								{
									OFFSET 0 0 0
CHANNELS 3 Zrotation Xrotation Yrotation
									JOINT RFingers
									{
OFFSET 0 -0.449140 0.000000
CHANNELS 3 Zrotation Xrotation Yrotation
										End Site
										{
OFFSET 0 -0.362110 0.000000
										}
									}
								}
								JOINT RThumb
								{
OFFSET 0 0.000000 0.000000
CHANNELS 3 Zrotation Xrotation Yrotation
									End Site
									{
OFFSET 0 -0.367630 0.367630
									}
								}
							}
						}
					}
				}
			}
		}
	}
}
MOTION
Frames: 6
Frame Time: 0.008333333333333333
-0.960500 18.184300 5.685400 -3.238900 -3.955900 0.198000 0.000000 0.000000 0.000000 -13.946500 -2.740200 18.229800 0.689500 -5.308400 -14.790300 -1.342100 21.168800 -15.611500 0.203400 -2.903800 -8.011100 0.000000 0.000000 0.000000 19.296100 1.306600 9.278600 0.000000 0.000000 -0.000000 -0.958400 -3.854000 -20.268200 -0.129900 -2.323500 6.400700 1.136700 0.907400 0.601400 0.693900 1.229500 -0.726800 0.054700 0.608400 -1.072300 -1.815700 -1.950000 -9.673200 4.172100 -3.342800 22.123100 1.366900 -1.315300 8.573600 0.000000 -0.000000 0.000000 -4.211100 10.905000 -20.538700 21.232600 -32.098900 6.173100 12.624900 7.944900 32.848300 0.000000 0.000000 0.000000 -7.125000 0.000000 0.000000 -10.854900 -2.981100 -11.610700 0.000000 -0.000000 0.000000 2.231900 15.963900 21.664700 -22.662600 -33.717800 -6.950100 -7.287200 28.131900 26.048700 0.000000 0.000000 0.000000 7.125000 0.000000 -0.000000 23.796700 54.584800 -5.852500
-0.960921 18.184300 5.686782 -3.222243 -3.960730 0.205334 0.000000 0.000000 0.000000 -13.956440 -2.701493 18.207669 0.688359 -5.304375 -14.778745 -1.331825 21.111907 -15.621658 0.200371 -2.882136 -7.950802 0.000000 0.000000 0.000000 19.279982 1.308870 9.285377 0.000000 0.000000 0.000000 -0.961947 -3.827210 -20.285858 -0.132993 -2.350657 6.475804 1.086305 0.923075 0.589369 0.695236 1.249499 -0.718500 0.084375 0.618830 -1.057894 -1.860557 -1.991322 -9.659953 4.241225 -3.405677 22.071014 1.391122 -1.342524 8.557641 0.000000 0.000000 0.000000 -4.248470 10.890760 -20.503060 21.194697 -32.054930 6.152957 12.625586 7.990926 32.909095 0.000000 0.000000 0.000000 -7.125000 0.000000 0.000000 -10.859978 -3.041081 -11.627263 0.000000 0.000000 0.000000 2.246072 15.977419 21.682756 -22.705223 -33.764887 -6.973764 -7.255890 28.083777 26.221602 0.000000 0.000000 0.000000 7.125000 0.000000 0.000000 23.937048 54.736255 -5.980782
-0.961261 18.183898 5.688166 -3.211965 -3.948444 0.217490 0.000000 0.000000 0.000000 -13.958834 -2.683354 18.185849 0.688161 -5.303322 -14.775766 -1.325345 21.074642 -15.624790 0.190858 -2.813396 -7.759795 0.000000 0.000000 0.000000 19.271477 1.297851 9.277921 0.000000 0.000000 0.000000 -0.964766 -3.806414 -20.300428 -0.138573 -2.399108 6.610119 1.061146 0.917405 0.553267 0.696514 1.240962 -0.710775 0.100592 0.614963 -1.030329 -2.198341 -2.013779 -9.383903 4.723974 -3.469779 21.710329 1.604198 -1.360942 8.400855 0.000000 0.000000 0.000000 -4.205838 10.844723 -20.671699 21.026225 -31.858815 6.063816 12.837423 7.700756 32.964108 0.000000 0.000000 0.000000 -7.125000 0.000000 0.000000 -10.747198 -3.128205 -11.517729 0.000000 0.000000 0.000000 2.250901 15.963853 21.693709 -22.711352 -33.771589 -6.977145 -7.171059 28.027083 26.273039 0.000000 0.000000 0.000000 7.125000 0.000000 0.000000 24.052271 54.766968 -6.030599
-0.961421 18.183259 5.690252 -3.222330 -3.940152 0.211722 0.000000 0.000000 0.000000 -13.940166 -2.644103 18.193860 0.689090 -5.307035 -14.786381 -1.324190 21.058740 -15.592261 0.190274 -2.808757 -7.746693 0.000000 0.000000 0.000000 19.286199 1.282702 9.293069 0.000000 0.000000 0.000000 -0.966500 -3.794343 -20.309891 -0.140652 -2.416715 6.658761 1.143517 0.928156 0.717060 0.646286 1.260113 -0.828025 -0.001418 0.622316 -1.239319 -2.254643 -2.034020 -9.238247 4.853349 -3.519517 21.734358 1.653446 -1.378278 8.387308 0.000000 0.000000 0.000000 -3.976579 10.389809 -20.909467 19.819978 -30.418841 5.442830 13.851412 6.774774 33.597782 0.000000 0.000000 0.000000 -7.125000 0.000000 0.000000 -10.248241 -3.916451 -11.097180 0.000000 0.000000 0.000000 2.379178 16.128664 21.559327 -22.701663 -33.760949 -6.971814 -7.236344 28.095823 26.159238 0.000000 0.000000 0.000000 7.125000 0.000000 0.000000 23.916285 54.675859 -5.939146
-0.961317 18.182673 5.692514 -3.234136 -3.939200 0.198400 0.000000 0.000000 0.000000 -13.924781 -2.603246 18.215453 0.690870 -5.313498 -14.804990 -1.329200 21.071576 -15.532631 0.204693 -2.912947 -8.036495 0.000000 0.000000 0.000000 19.297756 1.273352 9.316655 0.000000 0.000000 0.000000 -0.969409 -3.771975 -20.324633 -0.146555 -2.466690 6.797265 1.305511 0.965646 1.025745 0.542594 1.319301 -1.037510 -0.207383 0.647008 -1.620694 -1.965482 -2.057523 -9.271300 4.543936 -3.554398 22.145420 1.499199 -1.396048 8.523514 0.000000 0.000000 0.000000 -3.617536 9.525219 -21.120498 18.012589 -28.167260 4.558299 15.075217 5.744071 34.510084 0.000000 0.000000 0.000000 -7.125000 0.000000 0.000000 -9.675550 -5.025548 -10.632205 0.000000 0.000000 0.000000 2.604739 16.461007 21.339619 -22.721779 -33.783181 -6.982951 -7.321473 28.178512 26.005394 0.000000 0.000000 0.000000 7.125000 0.000000 0.000000 23.736067 54.551808 -5.816691
-0.960998 18.182008 5.695022 -3.236770 -3.943025 0.207791 0.000000 0.000000 0.000000 -13.925824 -2.620226 18.230898 0.692119 -5.318471 -14.819105 -1.331217 21.082295 -15.526992 0.218514 -3.009198 -8.304375 0.000000 0.000000 0.000000 19.298436 1.280432 9.309196 0.000000 0.000000 0.000000 -0.967098 -3.764933 -20.299578 -0.149327 -2.490022 6.861916 1.345079 0.977049 1.079695 0.514025 1.336474 -1.089236 -0.260628 0.654234 -1.702349 -1.905397 -2.062010 -9.248674 4.514319 -3.568368 22.213148 1.478240 -1.400046 8.541306 0.000000 0.000000 0.000000 -3.715163 10.126767 -20.943477 18.719875 -29.068576 4.894219 14.495776 6.347139 34.256325 0.000000 0.000000 0.000000 -7.125000 0.000000 0.000000 -9.963141 -4.673894 -10.902250 0.000000 0.000000 0.000000 2.657783 16.554914 21.330572 -22.745008 -33.808809 -6.995905 -7.360823 28.208642 26.111110 0.000000 0.000000 0.000000 7.125000 0.000000 0.000000 23.764746 54.655318 -5.885861
